<svg width="2748" height="797" xmlns="http://www.w3.org/2000/svg" xmlns:xlink="http://www.w3.org/1999/xlink" xml:space="preserve" overflow="hidden"><g transform="translate(-715 -939)"><g><g><g><path d="M1604.75 1166.58 1618.83 1180.67 1632.92 1166.58 1647 1180.67 1664.33 1159 1647 1137.33 1559.25 1137.33C1551.45 1123.03 1536.5 1113.5 1519.17 1113.5 1494.03 1113.5 1473.67 1133.87 1473.67 1159 1473.67 1184.13 1494.03 1204.5 1519.17 1204.5 1536.5 1204.5 1551.45 1194.97 1559.25 1180.67L1573.33 1180.67 1582 1172 1590.67 1180.67 1604.75 1166.58ZM1499.67 1172C1492.52 1172 1486.67 1166.15 1486.67 1159 1486.67 1151.85 1492.52 1146 1499.67 1146 1506.82 1146 1512.67 1151.85 1512.67 1159 1512.67 1166.15 1506.82 1172 1499.67 1172Z"/></g></g></g><rect x="2647.5" y="942.5" width="571" height="158" stroke="#000000" stroke-width="6.875" stroke-miterlimit="8" fill="#FFFFFF"/><text font-family="Noto Sans JP Black,Noto Sans JP Black_MSFontService,sans-serif" font-weight="900" font-size="83" transform="matrix(1 0 0 1 2788.78 1050)">PKEY 1</text><text font-family="Noto Sans JP Black,Noto Sans JP Black_MSFontService,sans-serif" font-weight="900" font-size="83" transform="matrix(1 0 0 1 3075.81 1050)"> </text><rect x="2647.5" y="1100.5" width="571" height="158" stroke="#000000" stroke-width="6.875" stroke-miterlimit="8" fill="#FFFFFF"/><text font-family="Noto Sans JP Black,Noto Sans JP Black_MSFontService,sans-serif" font-weight="900" font-size="83" transform="matrix(1 0 0 1 2788.78 1209)">PKEY 1</text><text font-family="Noto Sans JP Black,Noto Sans JP Black_MSFontService,sans-serif" font-weight="900" font-size="83" transform="matrix(1 0 0 1 3075.81 1209)"> </text><rect x="2647.5" y="1253.5" width="571" height="158" stroke="#000000" stroke-width="6.875" stroke-miterlimit="8" fill="#FFFFFF"/><text font-family="Noto Sans JP Black,Noto Sans JP Black_MSFontService,sans-serif" font-weight="900" font-size="83" transform="matrix(1 0 0 1 2788.78 1362)">PKEY 2</text><text font-family="Noto Sans JP Black,Noto Sans JP Black_MSFontService,sans-serif" font-weight="900" font-size="83" transform="matrix(1 0 0 1 3075.81 1362)"> </text><rect x="2647.5" y="1406.5" width="571" height="159" stroke="#000000" stroke-width="6.875" stroke-miterlimit="8" fill="#FFFFFF"/><text font-family="Noto Sans JP Black,Noto Sans JP Black_MSFontService,sans-serif" font-weight="900" font-size="83" transform="matrix(1 0 0 1 2788.78 1515)">PKEY 1</text><text font-family="Noto Sans JP Black,Noto Sans JP Black_MSFontService,sans-serif" font-weight="900" font-size="83" transform="matrix(1 0 0 1 3075.81 1515)"> </text><rect x="2647.5" y="1557.5" width="571" height="158" stroke="#000000" stroke-width="6.875" stroke-miterlimit="8" fill="#FFFFFF"/><text font-family="Noto Sans JP Black,Noto Sans JP Black_MSFontService,sans-serif" font-weight="900" font-size="83" transform="matrix(1 0 0 1 2788.78 1666)">PKEY 3</text><text font-family="Noto Sans JP Black,Noto Sans JP Black_MSFontService,sans-serif" font-weight="900" font-size="83" transform="matrix(1 0 0 1 3075.81 1666)"> </text><g><g><g><path d="M1604.75 1365.58 1618.83 1379.67 1632.92 1365.58 1647 1379.67 1664.33 1358 1647 1336.33 1559.25 1336.33C1551.45 1322.03 1536.5 1312.5 1519.17 1312.5 1494.03 1312.5 1473.67 1332.87 1473.67 1358 1473.67 1383.13 1494.03 1403.5 1519.17 1403.5 1536.5 1403.5 1551.45 1393.97 1559.25 1379.67L1573.33 1379.67 1582 1371 1590.67 1379.67 1604.75 1365.58ZM1499.67 1371C1492.52 1371 1486.67 1365.15 1486.67 1358 1486.67 1350.85 1492.52 1345 1499.67 1345 1506.82 1345 1512.67 1350.85 1512.67 1358 1512.67 1365.15 1506.82 1371 1499.67 1371Z"/></g></g></g><g><g><g><path d="M1604.75 1564.58 1618.83 1578.67 1632.92 1564.58 1647 1578.67 1664.33 1557 1647 1535.33 1559.25 1535.33C1551.45 1521.03 1536.5 1511.5 1519.17 1511.5 1494.03 1511.5 1473.67 1531.87 1473.67 1557 1473.67 1582.13 1494.03 1602.5 1519.17 1602.5 1536.5 1602.5 1551.45 1592.97 1559.25 1578.67L1573.33 1578.67 1582 1570 1590.67 1578.67 1604.75 1564.58ZM1499.67 1570C1492.52 1570 1486.67 1564.15 1486.67 1557 1486.67 1549.85 1492.52 1544 1499.67 1544 1506.82 1544 1512.67 1549.85 1512.67 1557 1512.67 1564.15 1506.82 1570 1499.67 1570Z"/></g></g></g><path d="M0.429692-3.41054 7.25077-2.55115 6.39138 4.26992-0.429692 3.41054ZM14.0718-1.69177 20.8929-0.832387 20.0335 5.98869 13.2125 5.1293ZM27.714 0.0269961 34.5351 0.88638 33.6757 7.70746 26.8546 6.84807ZM41.3561 1.74576 48.1772 2.60515 47.3178 9.42622 40.4968 8.56684ZM54.9983 3.46453 61.8194 4.32391 60.96 11.145 54.1389 10.2856ZM68.6404 5.1833 75.4615 6.04268 74.6021 12.8638 67.7811 12.0044ZM82.2826 6.90206 89.1037 7.76145 88.2443 14.5825 81.4232 13.7231ZM95.9247 8.62083 102.746 9.48022 101.886 16.3013 95.0654 15.4419ZM109.567 10.3396 116.388 11.199 115.529 18.0201 108.708 17.1607ZM123.209 12.0584 130.03 12.9177 129.171 19.7388 122.35 18.8794ZM136.851 13.7771 143.672 14.6365 142.813 21.4576 135.992 20.5982ZM150.493 15.4959 157.314 16.3553 156.455 23.1764 149.634 22.317ZM164.136 17.2147 170.957 18.074 170.097 24.8951 163.276 24.0357ZM177.778 18.9334 184.599 19.7928 183.739 26.6139 176.918 25.7545ZM191.42 20.6522 198.241 21.5116 197.382 28.3327 190.561 27.4733ZM205.062 22.371 211.883 23.2304 211.024 30.0514 204.203 29.192ZM218.704 24.0897 225.525 24.9491 224.666 31.7702 217.845 30.9108ZM232.346 25.8085 239.167 26.6679 238.308 33.489 231.487 32.6296ZM245.988 27.5273 252.809 28.3867 251.95 35.2077 245.129 34.3483ZM259.631 29.246 266.452 30.1054 265.592 36.9265 258.771 36.0671ZM273.273 30.9648 280.094 31.8242 279.234 38.6453 272.413 37.7859ZM286.915 32.6836 293.736 33.543 292.877 40.364 286.055 39.5046ZM300.557 34.4023 307.378 35.2617 306.519 42.0828 299.698 41.2234ZM314.199 36.1211 321.02 36.9805 320.161 43.8016 313.34 42.9422ZM327.841 37.8399 334.662 38.6993 333.803 45.5203 326.982 44.6609ZM341.483 39.5586 348.304 40.418 347.445 47.2391 340.624 46.3797ZM355.126 41.2774 361.947 42.1368 361.087 48.9579 354.266 48.0985ZM368.768 42.9962 375.589 43.8556 374.729 50.6766 367.908 49.8172ZM382.41 44.7149 389.231 45.5743 388.372 52.3954 381.55 51.536ZM396.052 46.4337 402.873 47.2931 402.014 54.1142 395.193 53.2548ZM409.694 48.1525 416.515 49.0119 415.656 55.8329 408.835 54.9736ZM423.336 49.8713 430.157 50.7306 429.298 57.5517 422.477 56.6923ZM436.979 51.59 443.8 52.4494 442.94 59.2705 436.119 58.4111ZM450.621 53.3088 457.442 54.1682 456.582 60.9893 449.761 60.1299ZM464.263 55.0276 471.084 55.8869 470.225 62.708 463.404 61.8486ZM477.905 56.7463 484.726 57.6057 483.867 64.4268 477.046 63.5674ZM491.547 58.4651 498.368 59.3245 497.509 66.1455 490.688 65.2862ZM505.189 60.1839 512.011 61.0432 511.151 67.8643 504.33 67.0049ZM518.832 61.9026 525.653 62.762 524.793 69.5831 517.972 68.7237ZM532.474 63.6214 539.295 64.4808 538.436 71.3018 531.614 70.4425ZM546.116 65.3402 552.937 66.1995 552.078 73.0206 545.257 72.1612ZM559.758 67.0589 566.579 67.9183 565.72 74.7394 558.899 73.88ZM573.4 68.7777 580.221 69.6371 579.362 76.4581 572.541 75.5988ZM587.043 70.4965 593.864 71.3558 593.004 78.1769 586.183 77.3175ZM600.685 72.2152 607.506 73.0746 606.646 79.8957 599.825 79.0363ZM614.327 73.934 621.148 74.7934 620.289 81.6144 613.468 80.7551ZM627.969 75.6528 634.79 76.5121 633.931 83.3332 627.11 82.4738ZM641.611 77.3715 648.432 78.2309 647.573 85.052 640.752 84.1926ZM655.253 79.0903 662.074 79.9497 661.215 86.7708 654.394 85.9114ZM668.895 80.8091 675.717 81.6684 674.857 88.4895 668.036 87.6301ZM682.538 82.5278 689.359 83.3872 688.499 90.2083 681.678 89.3489ZM696.18 84.2466 703.001 85.106 702.141 91.9271 695.32 91.0677ZM709.822 85.9654 716.643 86.8247 715.784 93.6458 708.962 92.7864ZM723.464 87.6841 730.285 88.5435 729.426 95.3646 722.605 94.5052ZM737.106 89.4029 743.927 90.2623 743.068 97.0833 736.247 96.224ZM750.748 91.1217 757.569 91.981 756.71 98.8021 749.889 97.9427ZM764.39 92.8404 771.211 93.6998 770.352 100.521 763.531 99.6615ZM778.033 94.5592 784.854 95.4186 783.994 102.24 777.173 101.38ZM791.675 96.278 798.496 97.1374 797.636 103.958 790.815 103.099ZM805.317 97.9967 812.138 98.8561 811.278 105.677 804.457 104.818ZM818.959 99.7155 825.78 100.575 824.92 107.396 818.099 106.537ZM832.601 101.434 839.422 102.294 838.562 109.115 831.741 108.255ZM846.243 103.153 853.064 104.012 852.205 110.834 845.384 109.974ZM859.885 104.872 866.706 105.731 865.847 112.552 859.026 111.693ZM873.527 106.591 880.348 107.45 879.489 114.271 872.668 113.412ZM887.169 108.309 893.991 109.169 893.131 115.99 886.31 115.13ZM900.812 110.028 907.633 110.888 906.773 117.709 899.952 116.849ZM914.454 111.747 921.275 112.606 920.416 119.427 913.594 118.568ZM928.096 113.466 934.917 114.325 934.058 121.146 927.237 120.287ZM941.738 115.184 948.559 116.044 947.7 122.865 940.879 122.005ZM948.393 105.629 973.958 122.708 944.955 132.913Z" transform="matrix(1 0 0 -1 1673.5 1144.21)"/><path d="M1673.63 1139.07 1680.5 1139.32 1680.24 1146.19 1673.37 1145.94ZM1687.37 1139.58 1694.24 1139.84 1693.98 1146.71 1687.11 1146.45ZM1701.11 1140.1 1707.98 1140.36 1707.72 1147.23 1700.85 1146.97ZM1714.85 1140.62 1721.72 1140.88 1721.46 1147.75 1714.59 1147.49ZM1728.59 1141.13 1735.46 1141.39 1735.2 1148.26 1728.33 1148ZM1742.33 1141.65 1749.2 1141.91 1748.94 1148.78 1742.07 1148.52ZM1756.07 1142.17 1762.94 1142.43 1762.68 1149.3 1755.81 1149.04ZM1769.81 1142.69 1776.68 1142.94 1776.42 1149.81 1769.55 1149.56ZM1783.55 1143.2 1790.42 1143.46 1790.16 1150.33 1783.29 1150.07ZM1797.29 1143.72 1804.16 1143.98 1803.9 1150.85 1797.03 1150.59ZM1811.03 1144.24 1817.9 1144.5 1817.64 1151.37 1810.77 1151.11ZM1824.77 1144.76 1831.64 1145.01 1831.38 1151.88 1824.51 1151.63ZM1838.51 1145.27 1845.38 1145.53 1845.12 1152.4 1838.25 1152.14ZM1852.25 1145.79 1859.12 1146.05 1858.86 1152.92 1851.99 1152.66ZM1865.99 1146.31 1872.86 1146.57 1872.6 1153.44 1865.73 1153.18ZM1879.73 1146.82 1886.6 1147.08 1886.34 1153.95 1879.47 1153.69ZM1893.47 1147.34 1900.34 1147.6 1900.08 1154.47 1893.21 1154.21ZM1907.21 1147.86 1914.08 1148.12 1913.83 1154.99 1906.96 1154.73ZM1920.95 1148.38 1927.82 1148.63 1927.57 1155.5 1920.7 1155.25ZM1934.69 1148.89 1941.56 1149.15 1941.31 1156.02 1934.44 1155.76ZM1948.43 1149.41 1955.3 1149.67 1955.05 1156.54 1948.18 1156.28ZM1962.17 1149.93 1969.04 1150.19 1968.79 1157.06 1961.92 1156.8ZM1975.91 1150.45 1982.79 1150.7 1982.53 1157.57 1975.66 1157.32ZM1989.66 1150.96 1996.53 1151.22 1996.27 1158.09 1989.4 1157.83ZM2003.4 1151.48 2010.27 1151.74 2010.01 1158.61 2003.14 1158.35ZM2017.14 1152 2024.01 1152.26 2023.75 1159.13 2016.88 1158.87ZM2030.88 1152.51 2037.75 1152.77 2037.49 1159.64 2030.62 1159.38ZM2044.62 1153.03 2051.49 1153.29 2051.23 1160.16 2044.36 1159.9ZM2058.36 1153.55 2065.23 1153.81 2064.97 1160.68 2058.1 1160.42ZM2072.1 1154.07 2078.97 1154.32 2078.71 1161.19 2071.84 1160.94ZM2085.84 1154.58 2092.71 1154.84 2092.45 1161.71 2085.58 1161.45ZM2099.58 1155.1 2106.45 1155.36 2106.19 1162.23 2099.32 1161.97ZM2113.32 1155.62 2120.19 1155.88 2119.93 1162.75 2113.06 1162.49ZM2127.06 1156.14 2133.93 1156.39 2133.67 1163.26 2126.8 1163.01ZM2140.8 1156.65 2147.67 1156.91 2147.41 1163.78 2140.54 1163.52ZM2154.54 1157.17 2161.41 1157.43 2161.15 1164.3 2154.28 1164.04ZM2168.28 1157.69 2175.15 1157.95 2174.89 1164.82 2168.02 1164.56ZM2182.02 1158.2 2188.89 1158.46 2188.63 1165.33 2181.76 1165.07ZM2195.76 1158.72 2202.63 1158.98 2202.37 1165.85 2195.5 1165.59ZM2209.5 1159.24 2216.37 1159.5 2216.11 1166.37 2209.24 1166.11ZM2223.24 1159.76 2230.11 1160.01 2229.85 1166.89 2222.98 1166.63ZM2236.98 1160.27 2243.85 1160.53 2243.59 1167.4 2236.72 1167.14ZM2250.72 1160.79 2257.59 1161.05 2257.33 1167.92 2250.46 1167.66ZM2264.46 1161.31 2271.33 1161.57 2271.07 1168.44 2264.2 1168.18ZM2278.2 1161.83 2285.07 1162.08 2284.81 1168.95 2277.94 1168.7ZM2291.94 1162.34 2298.81 1162.6 2298.55 1169.47 2291.68 1169.21ZM2305.68 1162.86 2312.55 1163.12 2312.29 1169.99 2305.42 1169.73ZM2319.42 1163.38 2326.29 1163.64 2326.03 1170.51 2319.16 1170.25ZM2333.16 1163.89 2340.03 1164.15 2339.77 1171.02 2332.9 1170.76ZM2346.9 1164.41 2353.77 1164.67 2353.51 1171.54 2346.64 1171.28ZM2360.64 1164.93 2367.51 1165.19 2367.25 1172.06 2360.38 1171.8ZM2374.38 1165.45 2381.25 1165.7 2380.99 1172.58 2374.12 1172.32ZM2388.12 1165.96 2394.99 1166.22 2394.73 1173.09 2387.86 1172.83ZM2401.86 1166.48 2408.73 1166.74 2408.47 1173.61 2401.6 1173.35ZM2415.6 1167 2422.47 1167.26 2422.21 1174.13 2415.34 1173.87ZM2429.34 1167.52 2436.21 1167.77 2435.96 1174.64 2429.08 1174.39ZM2443.08 1168.03 2449.95 1168.29 2449.7 1175.16 2442.83 1174.9ZM2456.82 1168.55 2463.69 1168.81 2463.44 1175.68 2456.57 1175.42ZM2470.56 1169.07 2477.43 1169.33 2477.18 1176.2 2470.31 1175.94ZM2484.3 1169.58 2491.17 1169.84 2490.92 1176.71 2484.05 1176.45ZM2498.04 1170.1 2504.91 1170.36 2504.66 1177.23 2497.79 1176.97ZM2511.78 1170.62 2518.66 1170.88 2518.4 1177.75 2511.53 1177.49ZM2525.53 1171.14 2532.4 1171.4 2532.14 1178.27 2525.27 1178.01ZM2539.27 1171.65 2546.14 1171.91 2545.88 1178.78 2539.01 1178.52ZM2553.01 1172.17 2559.88 1172.43 2559.62 1179.3 2552.75 1179.04ZM2566.75 1172.69 2573.62 1172.95 2573.36 1179.82 2566.49 1179.56ZM2580.49 1173.21 2587.36 1173.46 2587.1 1180.33 2580.23 1180.08ZM2594.23 1173.72 2601.1 1173.98 2600.84 1180.85 2593.97 1180.59ZM2607.97 1174.24 2614.84 1174.5 2614.58 1181.37 2607.71 1181.11ZM2621.71 1174.76 2624.69 1174.87 2624.43 1181.74 2621.45 1181.63ZM2620.49 1164.39 2647.46 1179.17 2619.46 1191.87Z"/><path d="M1674.65 1137.26 1681.13 1139.56 1678.83 1146.04 1672.35 1143.74ZM1687.61 1141.86 1694.09 1144.16 1691.79 1150.64 1685.31 1148.34ZM1700.57 1146.46 1707.05 1148.75 1704.75 1155.23 1698.27 1152.93ZM1713.53 1151.05 1720 1153.35 1717.71 1159.83 1711.23 1157.53ZM1726.48 1155.65 1732.96 1157.95 1730.66 1164.43 1724.18 1162.13ZM1739.44 1160.25 1745.92 1162.55 1743.62 1169.03 1737.14 1166.73ZM1752.4 1164.85 1758.88 1167.14 1756.58 1173.62 1750.1 1171.33ZM1765.36 1169.44 1771.84 1171.74 1769.54 1178.22 1763.06 1175.92ZM1778.32 1174.04 1784.8 1176.34 1782.5 1182.82 1776.02 1180.52ZM1791.28 1178.64 1797.76 1180.94 1795.46 1187.42 1788.98 1185.12ZM1804.24 1183.24 1810.71 1185.53 1808.42 1192.01 1801.94 1189.72ZM1817.19 1187.83 1823.67 1190.13 1821.37 1196.61 1814.89 1194.31ZM1830.15 1192.43 1836.63 1194.73 1834.33 1201.21 1827.85 1198.91ZM1843.11 1197.03 1849.59 1199.33 1847.29 1205.81 1840.81 1203.51ZM1856.07 1201.63 1862.55 1203.93 1860.25 1210.4 1853.77 1208.11ZM1869.03 1206.22 1875.51 1208.52 1873.21 1215 1866.73 1212.7ZM1881.99 1210.82 1888.47 1213.12 1886.17 1219.6 1879.69 1217.3ZM1894.95 1215.42 1901.42 1217.72 1899.13 1224.2 1892.65 1221.9ZM1907.9 1220.02 1914.38 1222.32 1912.08 1228.79 1905.6 1226.5ZM1920.86 1224.61 1927.34 1226.91 1925.04 1233.39 1918.56 1231.09ZM1933.82 1229.21 1940.3 1231.51 1938 1237.99 1931.52 1235.69ZM1946.78 1233.81 1953.26 1236.11 1950.96 1242.59 1944.48 1240.29ZM1959.74 1238.41 1966.22 1240.71 1963.92 1247.19 1957.44 1244.89ZM1972.7 1243 1979.18 1245.3 1976.88 1251.78 1970.4 1249.48ZM1985.66 1247.6 1992.13 1249.9 1989.84 1256.38 1983.36 1254.08ZM1998.61 1252.2 2005.09 1254.5 2002.79 1260.98 1996.31 1258.68ZM2011.57 1256.8 2018.05 1259.1 2015.75 1265.58 2009.27 1263.28ZM2024.53 1261.39 2031.01 1263.69 2028.71 1270.17 2022.23 1267.87ZM2037.49 1265.99 2043.97 1268.29 2041.67 1274.77 2035.19 1272.47ZM2050.45 1270.59 2056.93 1272.89 2054.63 1279.37 2048.15 1277.07ZM2063.41 1275.19 2069.89 1277.49 2067.59 1283.97 2061.11 1281.67ZM2076.37 1279.79 2082.84 1282.08 2080.55 1288.56 2074.07 1286.26ZM2089.32 1284.38 2095.8 1286.68 2093.5 1293.16 2087.02 1290.86ZM2102.28 1288.98 2108.76 1291.28 2106.46 1297.76 2099.98 1295.46ZM2115.24 1293.58 2121.72 1295.88 2119.42 1302.36 2112.94 1300.06ZM2128.2 1298.18 2134.68 1300.47 2132.38 1306.95 2125.9 1304.65ZM2141.16 1302.77 2147.64 1305.07 2145.34 1311.55 2138.86 1309.25ZM2154.12 1307.37 2160.6 1309.67 2158.3 1316.15 2151.82 1313.85ZM2167.08 1311.97 2173.55 1314.27 2171.26 1320.75 2164.78 1318.45ZM2180.03 1316.57 2186.51 1318.86 2184.21 1325.34 2177.73 1323.04ZM2192.99 1321.16 2199.47 1323.46 2197.17 1329.94 2190.69 1327.64ZM2205.95 1325.76 2212.43 1328.06 2210.13 1334.54 2203.65 1332.24ZM2218.91 1330.36 2225.39 1332.66 2223.09 1339.14 2216.61 1336.84ZM2231.87 1334.96 2238.35 1337.25 2236.05 1343.73 2229.57 1341.44ZM2244.83 1339.55 2251.31 1341.85 2249.01 1348.33 2242.53 1346.03ZM2257.79 1344.15 2264.26 1346.45 2261.97 1352.93 2255.49 1350.63ZM2270.74 1348.75 2277.22 1351.05 2274.92 1357.53 2268.44 1355.23ZM2283.7 1353.35 2290.18 1355.65 2287.88 1362.12 2281.4 1359.83ZM2296.66 1357.94 2303.14 1360.24 2300.84 1366.72 2294.36 1364.42ZM2309.62 1362.54 2316.1 1364.84 2313.8 1371.32 2307.32 1369.02ZM2322.58 1367.14 2329.06 1369.44 2326.76 1375.92 2320.28 1373.62ZM2335.54 1371.74 2342.02 1374.04 2339.72 1380.51 2333.24 1378.22ZM2348.5 1376.33 2354.97 1378.63 2352.68 1385.11 2346.2 1382.81ZM2361.45 1380.93 2367.93 1383.23 2365.63 1389.71 2359.15 1387.41ZM2374.41 1385.53 2380.89 1387.83 2378.59 1394.31 2372.11 1392.01ZM2387.37 1390.13 2393.85 1392.43 2391.55 1398.9 2385.07 1396.61ZM2400.33 1394.72 2406.81 1397.02 2404.51 1403.5 2398.03 1401.2ZM2413.29 1399.32 2419.77 1401.62 2417.47 1408.1 2410.99 1405.8ZM2426.25 1403.92 2432.73 1406.22 2430.43 1412.7 2423.95 1410.4ZM2439.21 1408.52 2445.68 1410.82 2443.39 1417.3 2436.91 1415ZM2452.16 1413.11 2458.64 1415.41 2456.34 1421.89 2449.86 1419.59ZM2465.12 1417.71 2471.6 1420.01 2469.3 1426.49 2462.82 1424.19ZM2478.08 1422.31 2484.56 1424.61 2482.26 1431.09 2475.78 1428.79ZM2491.04 1426.91 2497.52 1429.21 2495.22 1435.69 2488.74 1433.39ZM2504 1431.5 2510.48 1433.8 2508.18 1440.28 2501.7 1437.98ZM2516.96 1436.1 2523.44 1438.4 2521.14 1444.88 2514.66 1442.58ZM2529.92 1440.7 2536.39 1443 2534.1 1449.48 2527.62 1447.18ZM2542.87 1445.3 2549.35 1447.6 2547.05 1454.08 2540.58 1451.78ZM2555.83 1449.9 2562.31 1452.19 2560.01 1458.67 2553.53 1456.37ZM2568.79 1454.49 2575.27 1456.79 2572.97 1463.27 2566.49 1460.97ZM2581.75 1459.09 2588.23 1461.39 2585.93 1467.87 2579.45 1465.57ZM2594.71 1463.69 2601.19 1465.99 2598.89 1472.47 2592.41 1470.17ZM2607.67 1468.29 2614.15 1470.58 2611.85 1477.06 2605.37 1474.76ZM2620.63 1472.88 2627.01 1475.15 2624.71 1481.63 2618.33 1479.36ZM2626.14 1463.9 2647.46 1486.05 2616.94 1489.81Z"/><path d="M0.0605673-3.43697 6.9345-3.31583 6.81337 3.5581-0.0605673 3.43697ZM13.8084-3.1947 20.6824-3.07356 20.5612 3.80037 13.6873 3.67924ZM27.5563-2.95243 34.4302-2.83129 34.3091 4.04264 27.4352 3.9215ZM41.3042-2.71016 48.1781-2.58902 48.057 4.28491 41.183 4.16377ZM55.052-2.46789 61.926-2.34676 61.8048 4.52718 54.9309 4.40604ZM68.7999-2.22562 75.6738-2.10449 75.5527 4.76945 68.6788 4.64831ZM82.5478-1.98335 89.4217-1.86222 89.3006 5.01172 82.4266 4.89058ZM96.2956-1.74108 103.17-1.61995 103.048 5.25398 96.1745 5.13285ZM110.043-1.49881 116.917-1.37768 116.796 5.49625 109.922 5.37512ZM123.791-1.25654 130.665-1.13541 130.544 5.73852 123.67 5.61739ZM137.539-1.01428 144.413-0.893141 144.292 5.98079 137.418 5.85966ZM151.287-0.772007 158.161-0.650872 158.04 6.22306 151.166 6.10193ZM165.035-0.529738 171.909-0.408603 171.788 6.46533 164.914 6.34419ZM178.783-0.287469 185.657-0.166334 185.536 6.7076 178.662 6.58646ZM192.531-0.0452 199.405 0.0759344 199.283 6.94987 192.41 6.82873ZM206.279 0.197069 213.152 0.318203 213.031 7.19214 206.157 7.071ZM220.026 0.439337 226.9 0.560472 226.779 7.4344 219.905 7.31327ZM233.774 0.681606 240.648 0.802741 240.527 7.67667 233.653 7.55554ZM247.522 0.923875 254.396 1.04501 254.275 7.91894 247.401 7.79781ZM261.27 1.16614 268.144 1.28728 268.023 8.16121 261.149 8.04008ZM275.018 1.40841 281.892 1.52955 281.771 8.40348 274.897 8.28234ZM288.766 1.65068 295.64 1.77182 295.519 8.64575 288.645 8.52461ZM302.514 1.89295 309.388 2.01408 309.266 8.88802 302.393 8.76688ZM316.262 2.13522 323.135 2.25635 323.014 9.13029 316.14 9.00915ZM330.009 2.37749 336.883 2.49862 336.762 9.37255 329.888 9.25142ZM343.757 2.61976 350.631 2.74089 350.51 9.61482 343.636 9.49369ZM357.505 2.86203 364.379 2.98316 364.258 9.85709 357.384 9.73596ZM371.253 3.10429 378.127 3.22543 378.006 10.0994 371.132 9.97823ZM385.001 3.34656 391.875 3.4677 391.754 10.3416 384.88 10.2205ZM398.749 3.58883 405.623 3.70997 405.502 10.5839 398.628 10.4628ZM412.497 3.8311 419.371 3.95223 419.249 10.8262 412.375 10.705ZM426.244 4.07337 433.118 4.1945 432.997 11.0684 426.123 10.9473ZM439.992 4.31564 446.866 4.43677 446.745 11.3107 439.871 11.1896ZM453.74 4.55791 460.614 4.67904 460.493 11.553 453.619 11.4318ZM467.488 4.80018 474.362 4.92131 474.241 11.7952 467.367 11.6741ZM481.236 5.04244 488.11 5.16358 487.989 12.0375 481.115 11.9164ZM494.984 5.28471 501.858 5.40585 501.736 12.2798 494.862 12.1586ZM508.731 5.52698 515.605 5.64812 515.484 12.522 508.61 12.4009ZM522.479 5.76925 529.353 5.89038 529.232 12.7643 522.358 12.6432ZM536.227 6.01152 543.101 6.13265 542.98 13.0066 536.106 12.8855ZM549.975 6.25379 556.849 6.37492 556.728 13.2489 549.854 13.1277ZM563.723 6.49606 570.597 6.61719 570.476 13.4911 563.602 13.37ZM577.471 6.73833 584.345 6.85946 584.223 13.7334 577.349 13.6123ZM591.218 6.98059 598.092 7.10173 597.971 13.9757 591.097 13.8545ZM604.966 7.22286 611.84 7.344 611.719 14.2179 604.845 14.0968ZM618.714 7.46513 625.588 7.58627 625.467 14.4602 618.593 14.3391ZM632.462 7.7074 639.336 7.82853 639.215 14.7025 632.341 14.5813ZM646.21 7.94967 653.084 8.0708 652.963 14.9447 646.089 14.8236ZM659.958 8.19194 666.832 8.31307 666.711 15.187 659.837 15.0659ZM673.706 8.43421 680.58 8.55534 680.458 15.4293 673.585 15.3081ZM687.454 8.67648 694.328 8.79761 694.206 15.6715 687.332 15.5504ZM701.201 8.91875 708.075 9.03988 707.954 15.9138 701.08 15.7927ZM714.949 9.16101 721.823 9.28215 721.702 16.1561 714.828 16.0349ZM728.697 9.40328 735.571 9.52442 735.45 16.3983 728.576 16.2772ZM742.445 9.64555 749.319 9.76669 749.198 16.6406 742.324 16.5195ZM756.193 9.88782 763.067 10.009 762.946 16.8829 756.072 16.7618ZM769.941 10.1301 776.815 10.2512 776.694 17.1252 769.82 17.004ZM783.689 10.3724 790.563 10.4935 790.441 17.3674 783.568 17.2463ZM797.436 10.6146 804.31 10.7358 804.189 17.6097 797.315 17.4886ZM811.184 10.8569 818.058 10.978 817.937 17.852 811.063 17.7308ZM824.932 11.0992 831.806 11.2203 831.685 18.0942 824.811 17.9731ZM838.68 11.3414 845.554 11.4626 845.433 18.3365 838.559 18.2154ZM852.428 11.5837 859.302 11.7048 859.181 18.5788 852.307 18.4576ZM866.176 11.826 873.05 11.9471 872.929 18.821 866.055 18.6999ZM879.924 12.0682 886.798 12.1894 886.677 19.0633 879.803 18.9422ZM893.672 12.3105 900.546 12.4317 900.425 19.3056 893.551 19.1845ZM907.42 12.5528 911.107 12.6178 910.986 19.4917 907.299 19.4267ZM906.705 2.22609 933.958 16.4585 906.22 29.7218Z" transform="matrix(1 0 0 -1 1713.5 1348.96)"/><path d="M1713.79 1554.07 1720.64 1554.65 1720.06 1561.51 1713.21 1560.93ZM1727.49 1555.23 1734.34 1555.81 1733.76 1562.67 1726.91 1562.09ZM1741.19 1556.39 1748.04 1556.97 1747.46 1563.82 1740.61 1563.24ZM1754.89 1557.55 1761.74 1558.13 1761.16 1564.98 1754.31 1564.4ZM1768.59 1558.71 1775.44 1559.29 1774.86 1566.14 1768.01 1565.56ZM1782.3 1559.87 1789.15 1560.45 1788.57 1567.3 1781.72 1566.72ZM1796 1561.03 1802.85 1561.61 1802.27 1568.46 1795.42 1567.88ZM1809.7 1562.19 1816.55 1562.77 1815.97 1569.62 1809.12 1569.04ZM1823.4 1563.35 1830.25 1563.93 1829.67 1570.78 1822.82 1570.2ZM1837.1 1564.51 1843.95 1565.09 1843.37 1571.94 1836.52 1571.36ZM1850.8 1565.67 1857.65 1566.25 1857.07 1573.1 1850.22 1572.52ZM1864.5 1566.83 1871.35 1567.41 1870.77 1574.26 1863.92 1573.68ZM1878.2 1567.99 1885.05 1568.57 1884.47 1575.42 1877.62 1574.84ZM1891.9 1569.15 1898.75 1569.73 1898.17 1576.58 1891.32 1576ZM1905.6 1570.31 1912.45 1570.89 1911.87 1577.74 1905.02 1577.16ZM1919.31 1571.47 1926.16 1572.05 1925.58 1578.9 1918.73 1578.32ZM1933.01 1572.63 1939.86 1573.21 1939.28 1580.06 1932.43 1579.48ZM1946.71 1573.79 1953.56 1574.37 1952.98 1581.22 1946.13 1580.64ZM1960.41 1574.95 1967.26 1575.53 1966.68 1582.38 1959.83 1581.8ZM1974.11 1576.11 1980.96 1576.69 1980.38 1583.54 1973.53 1582.96ZM1987.81 1577.27 1994.66 1577.85 1994.08 1584.7 1987.23 1584.12ZM2001.51 1578.43 2008.36 1579.01 2007.78 1585.86 2000.93 1585.28ZM2015.21 1579.59 2022.06 1580.17 2021.48 1587.02 2014.63 1586.44ZM2028.91 1580.75 2035.76 1581.33 2035.18 1588.18 2028.33 1587.6ZM2042.61 1581.91 2049.46 1582.49 2048.88 1589.34 2042.03 1588.76ZM2056.32 1583.07 2063.17 1583.65 2062.59 1590.5 2055.74 1589.92ZM2070.02 1584.23 2076.87 1584.81 2076.29 1591.66 2069.44 1591.08ZM2083.72 1585.39 2090.57 1585.97 2089.99 1592.82 2083.14 1592.24ZM2097.42 1586.55 2104.27 1587.13 2103.69 1593.98 2096.84 1593.4ZM2111.12 1587.71 2117.97 1588.29 2117.39 1595.14 2110.54 1594.56ZM2124.82 1588.87 2131.67 1589.45 2131.09 1596.3 2124.24 1595.72ZM2138.52 1590.03 2145.37 1590.61 2144.79 1597.46 2137.94 1596.88ZM2152.22 1591.19 2159.07 1591.77 2158.49 1598.62 2151.64 1598.04ZM2165.92 1592.35 2172.77 1592.93 2172.19 1599.78 2165.34 1599.2ZM2179.62 1593.51 2186.47 1594.09 2185.89 1600.94 2179.04 1600.36ZM2193.33 1594.67 2200.18 1595.25 2199.6 1602.1 2192.75 1601.52ZM2207.03 1595.83 2213.88 1596.41 2213.3 1603.26 2206.45 1602.68ZM2220.73 1596.99 2227.58 1597.57 2227 1604.42 2220.15 1603.84ZM2234.43 1598.15 2241.28 1598.73 2240.7 1605.58 2233.85 1605ZM2248.13 1599.31 2254.98 1599.89 2254.4 1606.74 2247.55 1606.16ZM2261.83 1600.47 2268.68 1601.05 2268.1 1607.9 2261.25 1607.32ZM2275.53 1601.63 2282.38 1602.21 2281.8 1609.06 2274.95 1608.48ZM2289.23 1602.79 2296.08 1603.37 2295.5 1610.22 2288.65 1609.64ZM2302.93 1603.95 2309.78 1604.53 2309.2 1611.38 2302.35 1610.8ZM2316.63 1605.11 2323.48 1605.69 2322.9 1612.54 2316.05 1611.96ZM2330.34 1606.27 2337.19 1606.85 2336.61 1613.7 2329.76 1613.12ZM2344.04 1607.43 2350.89 1608.01 2350.31 1614.86 2343.46 1614.28ZM2357.74 1608.59 2364.59 1609.17 2364.01 1616.02 2357.16 1615.44ZM2371.44 1609.75 2378.29 1610.33 2377.71 1617.18 2370.86 1616.6ZM2385.14 1610.91 2391.99 1611.49 2391.41 1618.34 2384.56 1617.76ZM2398.84 1612.07 2405.69 1612.65 2405.11 1619.5 2398.26 1618.92ZM2412.54 1613.23 2419.39 1613.81 2418.81 1620.66 2411.96 1620.08ZM2426.24 1614.39 2433.09 1614.97 2432.51 1621.82 2425.66 1621.24ZM2439.94 1615.55 2446.79 1616.13 2446.21 1622.98 2439.36 1622.4ZM2453.64 1616.71 2460.49 1617.29 2459.91 1624.14 2453.06 1623.56ZM2467.35 1617.87 2474.2 1618.45 2473.62 1625.3 2466.77 1624.72ZM2481.05 1619.03 2487.9 1619.61 2487.32 1626.46 2480.47 1625.88ZM2494.75 1620.19 2501.6 1620.77 2501.02 1627.62 2494.17 1627.04ZM2508.45 1621.34 2515.3 1621.92 2514.72 1628.78 2507.87 1628.2ZM2522.15 1622.5 2529 1623.08 2528.42 1629.94 2521.57 1629.36ZM2535.85 1623.66 2542.7 1624.24 2542.12 1631.1 2535.27 1630.52ZM2549.55 1624.82 2556.4 1625.4 2555.82 1632.25 2548.97 1631.68ZM2563.25 1625.98 2570.1 1626.56 2569.52 1633.41 2562.67 1632.83ZM2576.95 1627.14 2583.8 1627.72 2583.22 1634.57 2576.37 1633.99ZM2590.65 1628.3 2597.5 1628.88 2596.92 1635.73 2590.07 1635.15ZM2604.35 1629.46 2611.21 1630.04 2610.63 1636.89 2603.77 1636.31ZM2618.06 1630.62 2624.91 1631.2 2624.33 1638.05 2617.48 1637.47ZM2621.22 1620.54 2647.46 1636.56 2618.9 1647.94Z"/><text font-family="Noto Sans JP Black,Noto Sans JP Black_MSFontService,sans-serif" font-weight="900" font-size="55" transform="matrix(1 0 0 1 748.846 1178)">PKEY 1 (AD=0, WD=1)</text><text font-family="Noto Sans JP Black,Noto Sans JP Black_MSFontService,sans-serif" font-weight="900" font-size="55" transform="matrix(1 0 0 1 1328.06 1178)"> </text><text font-family="Noto Sans JP Black,Noto Sans JP Black_MSFontService,sans-serif" font-weight="900" font-size="55" transform="matrix(1 0 0 1 748.846 1381)">PKEY 2 (AD=1, WD=0)</text><text font-family="Noto Sans JP Black,Noto Sans JP Black_MSFontService,sans-serif" font-weight="900" font-size="55" transform="matrix(1 0 0 1 1328.06 1381)"> </text><text font-family="Noto Sans JP Black,Noto Sans JP Black_MSFontService,sans-serif" font-weight="900" font-size="55" transform="matrix(1 0 0 1 748.846 1577)">PKEY 3 (AD=0, WD=0)</text><text font-family="Noto Sans JP Black,Noto Sans JP Black_MSFontService,sans-serif" font-weight="900" font-size="55" transform="matrix(1 0 0 1 1328.06 1577)"> </text><text font-family="Noto Sans JP Black,Noto Sans JP Black_MSFontService,sans-serif" font-weight="900" font-size="55" transform="matrix(1 0 0 1 3317.18 1505)">r/</text><text font-family="Noto Sans JP Black,Noto Sans JP Black_MSFontService,sans-serif" font-weight="900" font-size="55" transform="matrix(1 0 0 1 3361.87 1505)">-</text><text font-family="Noto Sans JP Black,Noto Sans JP Black_MSFontService,sans-serif" font-weight="900" font-size="55" transform="matrix(1 0 0 1 3383.06 1505)"> </text><text font-family="Noto Sans JP Black,Noto Sans JP Black_MSFontService,sans-serif" font-weight="900" font-size="55" transform="matrix(1 0 0 1 3317.18 1040)">r/</text><text font-family="Noto Sans JP Black,Noto Sans JP Black_MSFontService,sans-serif" font-weight="900" font-size="55" transform="matrix(1 0 0 1 3361.87 1040)">-</text><text font-family="Noto Sans JP Black,Noto Sans JP Black_MSFontService,sans-serif" font-weight="900" font-size="55" transform="matrix(1 0 0 1 3383.06 1040)"> </text><text font-family="Noto Sans JP Black,Noto Sans JP Black_MSFontService,sans-serif" font-weight="900" font-size="55" transform="matrix(1 0 0 1 3317.18 1198)">r/</text><text font-family="Noto Sans JP Black,Noto Sans JP Black_MSFontService,sans-serif" font-weight="900" font-size="55" transform="matrix(1 0 0 1 3361.87 1198)">-</text><text font-family="Noto Sans JP Black,Noto Sans JP Black_MSFontService,sans-serif" font-weight="900" font-size="55" transform="matrix(1 0 0 1 3383.06 1198)"> </text><text font-family="Noto Sans JP Black,Noto Sans JP Black_MSFontService,sans-serif" font-weight="900" font-size="55" transform="matrix(1 0 0 1 3317.18 1346)">-</text><text font-family="Noto Sans JP Black,Noto Sans JP Black_MSFontService,sans-serif" font-weight="900" font-size="55" transform="matrix(1 0 0 1 3338.38 1346)">/</text><text font-family="Noto Sans JP Black,Noto Sans JP Black_MSFontService,sans-serif" font-weight="900" font-size="55" transform="matrix(1 0 0 1 3359.57 1346)">-</text><text font-family="Noto Sans JP Black,Noto Sans JP Black_MSFontService,sans-serif" font-weight="900" font-size="55" transform="matrix(1 0 0 1 3380.77 1346)"> </text><text font-family="Noto Sans JP Black,Noto Sans JP Black_MSFontService,sans-serif" font-weight="900" font-size="55" transform="matrix(1 0 0 1 3317.18 1666)">r/w</text><text font-family="Noto Sans JP Black,Noto Sans JP Black_MSFontService,sans-serif" font-weight="900" font-size="55" transform="matrix(1 0 0 1 3411.14 1666)"> </text></g></svg>