<svg width="4079" height="493" xmlns="http://www.w3.org/2000/svg" xmlns:xlink="http://www.w3.org/1999/xlink" xml:space="preserve" overflow="hidden"><g transform="translate(-56 -1028)"><rect x="3169.5" y="1031.5" width="571" height="158" stroke="#000000" stroke-width="6.875" stroke-miterlimit="8" fill="#FFFFFF"/><text font-family="Noto Sans JP Black,Noto Sans JP Black_MSFontService,sans-serif" font-weight="900" font-size="83" transform="matrix(1 0 0 1 3384.32 1139)">r/w</text><text font-family="Noto Sans JP Black,Noto Sans JP Black_MSFontService,sans-serif" font-weight="900" font-size="83" transform="matrix(1 0 0 1 3525.26 1139)"> </text><rect x="3169.5" y="1189.5" width="571" height="159" stroke="#000000" stroke-width="6.875" stroke-miterlimit="8" fill="#FFFFFF"/><text font-family="Noto Sans JP Black,Noto Sans JP Black_MSFontService,sans-serif" font-weight="900" font-size="83" transform="matrix(1 0 0 1 3405.52 1298)">r/</text><text font-family="Noto Sans JP Black,Noto Sans JP Black_MSFontService,sans-serif" font-weight="900" font-size="83" transform="matrix(1 0 0 1 3472.55 1298)">-</text><text font-family="Noto Sans JP Black,Noto Sans JP Black_MSFontService,sans-serif" font-weight="900" font-size="83" transform="matrix(1 0 0 1 3504.06 1298)"> </text><rect x="3169.5" y="1343.5" width="571" height="158" stroke="#000000" stroke-width="6.875" stroke-miterlimit="8" fill="#FFFFFF"/><text font-family="Noto Sans JP Black,Noto Sans JP Black_MSFontService,sans-serif" font-weight="900" font-size="83" transform="matrix(1 0 0 1 3407.53 1451)">-</text><text font-family="Noto Sans JP Black,Noto Sans JP Black_MSFontService,sans-serif" font-weight="900" font-size="83" transform="matrix(1 0 0 1 3439.04 1451)">/</text><text font-family="Noto Sans JP Black,Noto Sans JP Black_MSFontService,sans-serif" font-weight="900" font-size="83" transform="matrix(1 0 0 1 3470.55 1451)">-</text><text font-family="Noto Sans JP Black,Noto Sans JP Black_MSFontService,sans-serif" font-weight="900" font-size="83" transform="matrix(1 0 0 1 3502.06 1451)"> </text><path d="M0.762201-3.35193 7.46607-1.82753 5.94166 4.87634-0.762201 3.35193ZM14.1699-0.303128 20.8738 1.22127 19.3494 7.92514 12.6455 6.40074ZM27.5777 2.74568 34.2815 4.27008 32.7571 10.9739 26.0533 9.44954ZM40.9854 5.79448 47.6893 7.31888 46.1649 14.0228 39.461 12.4983ZM54.3931 8.84329 61.097 10.3677 59.5726 17.0716 52.8687 15.5472ZM67.8009 11.8921 74.5047 13.4165 72.9803 20.1204 66.2765 18.596ZM81.2086 14.9409 87.9125 16.4653 86.3881 23.1692 79.6842 21.6448ZM94.6163 17.9897 101.32 19.5141 99.7958 26.218 93.0919 24.6936ZM108.024 21.0385 114.728 22.5629 113.204 29.2668 106.5 27.7424ZM121.432 24.0873 128.136 25.6117 126.611 32.3156 119.907 30.7912ZM134.84 27.1361 141.543 28.6605 140.019 35.3644 133.315 33.84ZM148.247 30.1849 154.951 31.7093 153.427 38.4132 146.723 36.8888ZM161.655 33.2337 168.359 34.7581 166.834 41.462 160.131 39.9376ZM175.063 36.2825 181.767 37.8069 180.242 44.5108 173.538 42.9864ZM188.471 39.3314 195.174 40.8558 193.65 47.5596 186.946 46.0352ZM201.878 42.3802 208.582 43.9046 207.058 50.6084 200.354 49.084ZM215.286 45.429 221.99 46.9534 220.465 53.6572 213.762 52.1328ZM228.694 48.4778 235.398 50.0022 233.873 56.706 227.169 55.1816ZM242.101 51.5266 248.805 53.051 247.281 59.7549 240.577 58.2304ZM255.509 54.5754 262.213 56.0998 260.689 62.8037 253.985 61.2793ZM268.917 57.6242 275.621 59.1486 274.096 65.8525 267.393 64.3281ZM282.325 60.673 289.029 62.1974 287.504 68.9013 280.8 67.3769ZM295.732 63.7218 302.436 65.2462 300.912 71.9501 294.208 70.4257ZM309.14 66.7706 315.844 68.295 314.32 74.9989 307.616 73.4745ZM322.548 69.8194 329.252 71.3438 327.727 78.0477 321.023 76.5233ZM335.956 72.8682 342.659 74.3926 341.135 81.0965 334.431 79.5721ZM349.363 75.917 356.067 77.4414 354.543 84.1453 347.839 82.6209ZM362.771 78.9659 369.475 80.4902 367.951 87.1941 361.247 85.6697ZM376.179 82.0147 382.883 83.5391 381.358 90.2429 374.654 88.7185ZM389.587 85.0635 396.29 86.5879 394.766 93.2917 388.062 91.7673ZM402.994 88.1123 409.698 89.6367 408.174 96.3405 401.47 94.8161ZM416.402 91.1611 423.106 92.6855 421.581 99.3893 414.878 97.8649ZM429.81 94.2099 436.513 95.7343 434.989 102.438 428.285 100.914ZM443.217 97.2587 449.921 98.7831 448.397 105.487 441.693 103.963ZM456.625 100.307 463.329 101.832 461.804 108.536 455.101 107.011ZM470.033 103.356 476.737 104.881 475.212 111.585 468.508 110.06ZM483.44 106.405 490.144 107.929 488.62 114.633 481.916 113.109ZM496.848 109.454 503.552 110.978 502.028 117.682 495.324 116.158ZM510.256 112.503 516.96 114.027 515.435 120.731 508.732 119.207ZM523.664 115.551 530.368 117.076 528.843 123.78 522.139 122.255ZM537.071 118.6 543.775 120.125 542.251 126.829 535.547 125.304ZM550.479 121.649 557.183 123.173 555.659 129.877 548.955 128.353ZM563.887 124.698 570.591 126.222 569.066 132.926 562.363 131.402ZM577.295 127.747 583.999 129.271 582.474 135.975 575.77 134.451ZM590.702 130.795 597.406 132.32 595.882 139.024 589.178 137.499ZM604.11 133.844 610.814 135.369 609.29 142.073 602.586 140.548ZM617.518 136.893 624.222 138.418 622.697 145.121 615.993 143.597ZM630.926 139.942 637.63 141.466 636.105 148.17 629.401 146.646ZM644.333 142.991 651.037 144.515 649.513 151.219 642.809 149.695ZM650.088 133.723 673.854 153.229 643.99 160.539Z" transform="matrix(1 0 0 -1 2496.5 1263.73)"/><path d="M2496.5 1265.06 2503.38 1265.06 2503.38 1271.94 2496.5 1271.94ZM2510.25 1265.06 2517.13 1265.06 2517.13 1271.94 2510.25 1271.94ZM2524 1265.06 2530.88 1265.06 2530.88 1271.94 2524 1271.94ZM2537.75 1265.06 2544.63 1265.06 2544.63 1271.94 2537.75 1271.94ZM2551.5 1265.06 2558.38 1265.06 2558.38 1271.94 2551.5 1271.94ZM2565.25 1265.06 2572.13 1265.06 2572.13 1271.94 2565.25 1271.94ZM2579 1265.06 2585.88 1265.06 2585.88 1271.94 2579 1271.94ZM2592.75 1265.06 2599.63 1265.06 2599.63 1271.94 2592.75 1271.94ZM2606.5 1265.06 2613.38 1265.06 2613.38 1271.94 2606.5 1271.94ZM2620.25 1265.06 2627.13 1265.06 2627.13 1271.94 2620.25 1271.94ZM2634 1265.06 2640.88 1265.06 2640.88 1271.94 2634 1271.94ZM2647.75 1265.06 2654.63 1265.06 2654.63 1271.94 2647.75 1271.94ZM2661.5 1265.06 2668.38 1265.06 2668.38 1271.94 2661.5 1271.94ZM2675.25 1265.06 2682.13 1265.06 2682.13 1271.94 2675.25 1271.94ZM2689 1265.06 2695.88 1265.06 2695.88 1271.94 2689 1271.94ZM2702.75 1265.06 2709.63 1265.06 2709.63 1271.94 2702.75 1271.94ZM2716.5 1265.06 2723.38 1265.06 2723.38 1271.94 2716.5 1271.94ZM2730.25 1265.06 2737.13 1265.06 2737.13 1271.94 2730.25 1271.94ZM2744 1265.06 2750.88 1265.06 2750.88 1271.94 2744 1271.94ZM2757.75 1265.06 2764.63 1265.06 2764.63 1271.94 2757.75 1271.94ZM2771.5 1265.06 2778.38 1265.06 2778.38 1271.94 2771.5 1271.94ZM2785.25 1265.06 2792.13 1265.06 2792.13 1271.94 2785.25 1271.94ZM2799 1265.06 2805.88 1265.06 2805.88 1271.94 2799 1271.94ZM2812.75 1265.06 2819.63 1265.06 2819.63 1271.94 2812.75 1271.94ZM2826.5 1265.06 2833.38 1265.06 2833.38 1271.94 2826.5 1271.94ZM2840.25 1265.06 2847.13 1265.06 2847.13 1271.94 2840.25 1271.94ZM2854 1265.06 2860.88 1265.06 2860.88 1271.94 2854 1271.94ZM2867.75 1265.06 2874.63 1265.06 2874.63 1271.94 2867.75 1271.94ZM2881.5 1265.06 2888.38 1265.06 2888.38 1271.94 2881.5 1271.94ZM2895.25 1265.06 2902.13 1265.06 2902.13 1271.94 2895.25 1271.94ZM2909 1265.06 2915.88 1265.06 2915.88 1271.94 2909 1271.94ZM2922.75 1265.06 2929.63 1265.06 2929.63 1271.94 2922.75 1271.94ZM2936.5 1265.06 2943.38 1265.06 2943.38 1271.94 2936.5 1271.94ZM2950.25 1265.06 2957.13 1265.06 2957.13 1271.94 2950.25 1271.94ZM2964 1265.06 2970.88 1265.06 2970.88 1271.94 2964 1271.94ZM2977.75 1265.06 2984.63 1265.06 2984.63 1271.94 2977.75 1271.94ZM2991.5 1265.06 2998.38 1265.06 2998.38 1271.94 2991.5 1271.94ZM3005.25 1265.06 3012.13 1265.06 3012.13 1271.94 3005.25 1271.94ZM3019 1265.06 3025.88 1265.06 3025.88 1271.94 3019 1271.94ZM3032.75 1265.06 3039.63 1265.06 3039.63 1271.94 3032.75 1271.94ZM3046.5 1265.06 3053.38 1265.06 3053.38 1271.94 3046.5 1271.94ZM3060.25 1265.06 3067.13 1265.06 3067.13 1271.94 3060.25 1271.94ZM3074 1265.06 3080.88 1265.06 3080.88 1271.94 3074 1271.94ZM3087.75 1265.06 3094.63 1265.06 3094.63 1271.94 3087.75 1271.94ZM3101.5 1265.06 3108.38 1265.06 3108.38 1271.94 3101.5 1271.94ZM3115.25 1265.06 3122.13 1265.06 3122.13 1271.94 3115.25 1271.94ZM3129 1265.06 3135.88 1265.06 3135.88 1271.94 3129 1271.94ZM3142.75 1265.06 3147.44 1265.06 3147.44 1271.94 3142.75 1271.94ZM3142.85 1254.75 3170.35 1268.5 3142.85 1282.25Z"/><path d="M2497.21 1277.14 2503.94 1278.55 2502.52 1285.28 2495.79 1283.86ZM2510.66 1279.97 2517.39 1281.38 2515.98 1288.11 2509.25 1286.69ZM2524.12 1282.8 2530.85 1284.21 2529.43 1290.94 2522.7 1289.52ZM2537.57 1285.63 2544.3 1287.04 2542.89 1293.77 2536.16 1292.35ZM2551.03 1288.46 2557.76 1289.87 2556.34 1296.6 2549.61 1295.18ZM2564.49 1291.29 2571.21 1292.7 2569.8 1299.43 2563.07 1298.01ZM2577.94 1294.12 2584.67 1295.53 2583.25 1302.26 2576.53 1300.84ZM2591.4 1296.95 2598.12 1298.36 2596.71 1305.09 2589.98 1303.67ZM2604.85 1299.78 2611.58 1301.19 2610.17 1307.92 2603.44 1306.5ZM2618.31 1302.61 2625.04 1304.02 2623.62 1310.75 2616.89 1309.34ZM2631.76 1305.44 2638.49 1306.85 2637.08 1313.58 2630.35 1312.17ZM2645.22 1308.27 2651.95 1309.68 2650.53 1316.41 2643.8 1315ZM2658.67 1311.1 2665.4 1312.51 2663.99 1319.24 2657.26 1317.83ZM2672.13 1313.93 2678.86 1315.34 2677.44 1322.07 2670.72 1320.66ZM2685.59 1316.76 2692.31 1318.17 2690.9 1324.9 2684.17 1323.49ZM2699.04 1319.59 2705.77 1321 2704.35 1327.73 2697.63 1326.32ZM2712.5 1322.42 2719.23 1323.83 2717.81 1330.56 2711.08 1329.15ZM2725.95 1325.25 2732.68 1326.66 2731.27 1333.39 2724.54 1331.98ZM2739.41 1328.08 2746.14 1329.49 2744.72 1336.22 2737.99 1334.81ZM2752.86 1330.91 2759.59 1332.32 2758.18 1339.05 2751.45 1337.64ZM2766.32 1333.74 2773.05 1335.15 2771.63 1341.88 2764.9 1340.47ZM2779.78 1336.57 2786.5 1337.98 2785.09 1344.71 2778.36 1343.3ZM2793.23 1339.4 2799.96 1340.81 2798.54 1347.54 2791.82 1346.13ZM2806.69 1342.23 2813.41 1343.64 2812 1350.37 2805.27 1348.96ZM2820.14 1345.06 2826.87 1346.47 2825.45 1353.2 2818.73 1351.79ZM2833.6 1347.89 2840.33 1349.3 2838.91 1356.03 2832.18 1354.62ZM2847.05 1350.72 2853.78 1352.13 2852.37 1358.86 2845.64 1357.45ZM2860.51 1353.55 2867.24 1354.96 2865.82 1361.69 2859.09 1360.28ZM2873.96 1356.38 2880.69 1357.79 2879.28 1364.52 2872.55 1363.11ZM2887.42 1359.21 2894.15 1360.62 2892.73 1367.35 2886 1365.94ZM2900.88 1362.04 2907.6 1363.46 2906.19 1370.18 2899.46 1368.77ZM2914.33 1364.87 2921.06 1366.29 2919.64 1373.01 2912.92 1371.6ZM2927.79 1367.7 2934.51 1369.12 2933.1 1375.84 2926.37 1374.43ZM2941.24 1370.53 2947.97 1371.95 2946.56 1378.67 2939.83 1377.26ZM2954.7 1373.36 2961.43 1374.78 2960.01 1381.5 2953.28 1380.09ZM2968.15 1376.19 2974.88 1377.61 2973.47 1384.33 2966.74 1382.92ZM2981.61 1379.02 2988.34 1380.44 2986.92 1387.16 2980.19 1385.75ZM2995.06 1381.85 3001.79 1383.27 3000.38 1389.99 2993.65 1388.58ZM3008.52 1384.68 3015.25 1386.1 3013.83 1392.82 3007.11 1391.41ZM3021.98 1387.51 3028.7 1388.93 3027.29 1395.65 3020.56 1394.24ZM3035.43 1390.34 3042.16 1391.76 3040.74 1398.48 3034.02 1397.07ZM3048.89 1393.17 3055.61 1394.59 3054.2 1401.31 3047.47 1399.9ZM3062.34 1396 3069.07 1397.42 3067.66 1404.14 3060.93 1402.73ZM3075.8 1398.83 3082.53 1400.25 3081.11 1406.97 3074.38 1405.56ZM3089.25 1401.66 3095.98 1403.08 3094.57 1409.8 3087.84 1408.39ZM3102.71 1404.49 3109.44 1405.91 3108.02 1412.63 3101.29 1411.22ZM3116.17 1407.32 3122.89 1408.74 3121.48 1415.46 3114.75 1414.05ZM3129.62 1410.15 3136.35 1411.57 3134.93 1418.3 3128.21 1416.88ZM3143.08 1412.98 3148.64 1414.15 3147.22 1420.88 3141.66 1419.71ZM3146.27 1403.12 3170.35 1422.23 3140.61 1430.03Z"/><text font-family="Noto Sans JP Black,Noto Sans JP Black_MSFontService,sans-serif" font-weight="900" font-size="83" transform="matrix(1 0 0 1 2097.18 1296)">書き込み</text><text font-family="Noto Sans JP Black,Noto Sans JP Black_MSFontService,sans-serif" font-weight="900" font-size="83" transform="matrix(1 0 0 1 2427.18 1296)"> </text><text fill="#196B24" font-family="Noto Sans JP Black,Noto Sans JP Black_MSFontService,sans-serif" font-weight="900" font-size="55" transform="matrix(1 0 0 1 3839.68 1130)">OK!</text><text fill="#196B24" font-family="Noto Sans JP Black,Noto Sans JP Black_MSFontService,sans-serif" font-weight="900" font-size="55" transform="matrix(1 0 0 1 3943.38 1130)"> </text><text fill="#FF0000" font-family="Noto Sans JP Black,Noto Sans JP Black_MSFontService,sans-serif" font-weight="900" font-size="55" transform="matrix(1 0 0 1 3839.68 1287)">Erro</text><text fill="#FF0000" font-family="Noto Sans JP Black,Noto Sans JP Black_MSFontService,sans-serif" font-weight="900" font-size="55" transform="matrix(1 0 0 1 3959.42 1287)">r</text><text fill="#FF0000" font-family="Noto Sans JP Black,Noto Sans JP Black_MSFontService,sans-serif" font-weight="900" font-size="55" transform="matrix(1 0 0 1 3985.2 1287)"> </text><text fill="#FF0000" font-family="Noto Sans JP Black,Noto Sans JP Black_MSFontService,sans-serif" font-weight="900" font-size="55" transform="matrix(1 0 0 1 3839.68 1436)">Error</text><text fill="#FF0000" font-family="Noto Sans JP Black,Noto Sans JP Black_MSFontService,sans-serif" font-weight="900" font-size="55" transform="matrix(1 0 0 1 3985.2 1436)"> </text><rect x="1178.5" y="1031.5" width="571" height="158" stroke="#000000" stroke-width="6.875" stroke-miterlimit="8" fill="#FFFFFF"/><text font-family="Noto Sans JP Black,Noto Sans JP Black_MSFontService,sans-serif" font-weight="900" font-size="83" transform="matrix(1 0 0 1 1392.97 1139)">r/w</text><text font-family="Noto Sans JP Black,Noto Sans JP Black_MSFontService,sans-serif" font-weight="900" font-size="83" transform="matrix(1 0 0 1 1533.91 1139)"> </text><rect x="1178.5" y="1189.5" width="571" height="159" stroke="#000000" stroke-width="6.875" stroke-miterlimit="8" fill="#FFFFFF"/><text font-family="Noto Sans JP Black,Noto Sans JP Black_MSFontService,sans-serif" font-weight="900" font-size="83" transform="matrix(1 0 0 1 1414.17 1298)">r/</text><text font-family="Noto Sans JP Black,Noto Sans JP Black_MSFontService,sans-serif" font-weight="900" font-size="83" transform="matrix(1 0 0 1 1481.2 1298)">-</text><text font-family="Noto Sans JP Black,Noto Sans JP Black_MSFontService,sans-serif" font-weight="900" font-size="83" transform="matrix(1 0 0 1 1512.71 1298)"> </text><rect x="1178.5" y="1343.5" width="571" height="158" stroke="#000000" stroke-width="6.875" stroke-miterlimit="8" fill="#FFFFFF"/><text font-family="Noto Sans JP Black,Noto Sans JP Black_MSFontService,sans-serif" font-weight="900" font-size="83" transform="matrix(1 0 0 1 1416.18 1451)">-</text><text font-family="Noto Sans JP Black,Noto Sans JP Black_MSFontService,sans-serif" font-weight="900" font-size="83" transform="matrix(1 0 0 1 1447.69 1451)">/</text><text font-family="Noto Sans JP Black,Noto Sans JP Black_MSFontService,sans-serif" font-weight="900" font-size="83" transform="matrix(1 0 0 1 1479.2 1451)">-</text><text font-family="Noto Sans JP Black,Noto Sans JP Black_MSFontService,sans-serif" font-weight="900" font-size="83" transform="matrix(1 0 0 1 1510.71 1451)"> </text><path d="M0.762201-3.35193 7.46607-1.82753 5.94166 4.87634-0.762201 3.35193ZM14.1699-0.303128 20.8738 1.22127 19.3494 7.92514 12.6455 6.40074ZM27.5777 2.74568 34.2815 4.27008 32.7571 10.9739 26.0533 9.44954ZM40.9854 5.79448 47.6893 7.31888 46.1649 14.0228 39.461 12.4983ZM54.3931 8.84329 61.097 10.3677 59.5726 17.0716 52.8687 15.5472ZM67.8009 11.8921 74.5047 13.4165 72.9803 20.1204 66.2765 18.596ZM81.2086 14.9409 87.9125 16.4653 86.3881 23.1692 79.6842 21.6448ZM94.6163 17.9897 101.32 19.5141 99.7958 26.218 93.0919 24.6936ZM108.024 21.0385 114.728 22.5629 113.204 29.2668 106.5 27.7424ZM121.432 24.0873 128.136 25.6117 126.611 32.3156 119.907 30.7912ZM134.84 27.1361 141.543 28.6605 140.019 35.3644 133.315 33.84ZM148.247 30.1849 154.951 31.7093 153.427 38.4132 146.723 36.8888ZM161.655 33.2337 168.359 34.7581 166.834 41.462 160.131 39.9376ZM175.063 36.2825 181.767 37.8069 180.242 44.5108 173.538 42.9864ZM188.471 39.3314 195.174 40.8558 193.65 47.5596 186.946 46.0352ZM201.878 42.3802 208.582 43.9046 207.058 50.6084 200.354 49.084ZM215.286 45.429 221.99 46.9534 220.465 53.6572 213.762 52.1328ZM228.694 48.4778 235.398 50.0022 233.873 56.706 227.169 55.1816ZM242.101 51.5266 248.805 53.051 247.281 59.7549 240.577 58.2304ZM255.509 54.5754 262.213 56.0998 260.689 62.8037 253.985 61.2793ZM268.917 57.6242 275.621 59.1486 274.096 65.8525 267.393 64.3281ZM282.325 60.673 289.029 62.1974 287.504 68.9013 280.8 67.3769ZM295.732 63.7218 302.436 65.2462 300.912 71.9501 294.208 70.4257ZM309.14 66.7706 315.844 68.295 314.32 74.9989 307.616 73.4745ZM322.548 69.8194 329.252 71.3438 327.727 78.0477 321.023 76.5233ZM335.956 72.8682 342.659 74.3926 341.135 81.0965 334.431 79.5721ZM349.363 75.917 356.067 77.4414 354.543 84.1453 347.839 82.6209ZM362.771 78.9659 369.475 80.4902 367.951 87.1941 361.247 85.6697ZM376.179 82.0147 382.883 83.5391 381.358 90.2429 374.654 88.7185ZM389.587 85.0635 396.29 86.5879 394.766 93.2917 388.062 91.7673ZM402.994 88.1123 409.698 89.6367 408.174 96.3405 401.47 94.8161ZM416.402 91.1611 423.106 92.6855 421.581 99.3893 414.878 97.8649ZM429.81 94.2099 436.513 95.7343 434.989 102.438 428.285 100.914ZM443.217 97.2587 449.921 98.7831 448.397 105.487 441.693 103.963ZM456.625 100.307 463.329 101.832 461.804 108.536 455.101 107.011ZM470.033 103.356 476.737 104.881 475.212 111.585 468.508 110.06ZM483.44 106.405 490.144 107.929 488.62 114.633 481.916 113.109ZM496.848 109.454 503.552 110.978 502.028 117.682 495.324 116.158ZM510.256 112.503 516.96 114.027 515.435 120.731 508.732 119.207ZM523.664 115.551 530.368 117.076 528.843 123.78 522.139 122.255ZM537.071 118.6 543.775 120.125 542.251 126.829 535.547 125.304ZM550.479 121.649 557.183 123.173 555.659 129.877 548.955 128.353ZM563.887 124.698 570.591 126.222 569.066 132.926 562.363 131.402ZM577.295 127.747 583.999 129.271 582.474 135.975 575.77 134.451ZM590.702 130.795 597.406 132.32 595.882 139.024 589.178 137.499ZM604.11 133.844 610.814 135.369 609.29 142.073 602.586 140.548ZM617.518 136.893 624.222 138.418 622.697 145.121 615.993 143.597ZM630.926 139.942 637.63 141.466 636.105 148.17 629.401 146.646ZM644.333 142.991 651.037 144.515 649.513 151.219 642.809 149.695ZM650.088 133.723 673.854 153.229 643.99 160.539Z" transform="matrix(1 0 0 -1 504.5 1263.73)"/><path d="M504.5 1265.06 511.375 1265.06 511.375 1271.94 504.5 1271.94ZM518.25 1265.06 525.125 1265.06 525.125 1271.94 518.25 1271.94ZM532 1265.06 538.875 1265.06 538.875 1271.94 532 1271.94ZM545.75 1265.06 552.625 1265.06 552.625 1271.94 545.75 1271.94ZM559.5 1265.06 566.375 1265.06 566.375 1271.94 559.5 1271.94ZM573.25 1265.06 580.125 1265.06 580.125 1271.94 573.25 1271.94ZM587 1265.06 593.875 1265.06 593.875 1271.94 587 1271.94ZM600.75 1265.06 607.625 1265.06 607.625 1271.94 600.75 1271.94ZM614.5 1265.06 621.375 1265.06 621.375 1271.94 614.5 1271.94ZM628.25 1265.06 635.125 1265.06 635.125 1271.94 628.25 1271.94ZM642 1265.06 648.875 1265.06 648.875 1271.94 642 1271.94ZM655.75 1265.06 662.625 1265.06 662.625 1271.94 655.75 1271.94ZM669.5 1265.06 676.375 1265.06 676.375 1271.94 669.5 1271.94ZM683.25 1265.06 690.125 1265.06 690.125 1271.94 683.25 1271.94ZM697 1265.06 703.875 1265.06 703.875 1271.94 697 1271.94ZM710.75 1265.06 717.625 1265.06 717.625 1271.94 710.75 1271.94ZM724.5 1265.06 731.375 1265.06 731.375 1271.94 724.5 1271.94ZM738.25 1265.06 745.125 1265.06 745.125 1271.94 738.25 1271.94ZM752 1265.06 758.875 1265.06 758.875 1271.94 752 1271.94ZM765.75 1265.06 772.625 1265.06 772.625 1271.94 765.75 1271.94ZM779.5 1265.06 786.375 1265.06 786.375 1271.94 779.5 1271.94ZM793.25 1265.06 800.125 1265.06 800.125 1271.94 793.25 1271.94ZM807 1265.06 813.875 1265.06 813.875 1271.94 807 1271.94ZM820.75 1265.06 827.625 1265.06 827.625 1271.94 820.75 1271.94ZM834.5 1265.06 841.375 1265.06 841.375 1271.94 834.5 1271.94ZM848.25 1265.06 855.125 1265.06 855.125 1271.94 848.25 1271.94ZM862 1265.06 868.875 1265.06 868.875 1271.94 862 1271.94ZM875.75 1265.06 882.625 1265.06 882.625 1271.94 875.75 1271.94ZM889.5 1265.06 896.375 1265.06 896.375 1271.94 889.5 1271.94ZM903.25 1265.06 910.125 1265.06 910.125 1271.94 903.25 1271.94ZM917 1265.06 923.875 1265.06 923.875 1271.94 917 1271.94ZM930.75 1265.06 937.625 1265.06 937.625 1271.94 930.75 1271.94ZM944.5 1265.06 951.375 1265.06 951.375 1271.94 944.5 1271.94ZM958.25 1265.06 965.125 1265.06 965.125 1271.94 958.25 1271.94ZM972 1265.06 978.875 1265.06 978.875 1271.94 972 1271.94ZM985.75 1265.06 992.625 1265.06 992.625 1271.94 985.75 1271.94ZM999.5 1265.06 1006.38 1265.06 1006.38 1271.94 999.5 1271.94ZM1013.25 1265.06 1020.13 1265.06 1020.13 1271.94 1013.25 1271.94ZM1027 1265.06 1033.88 1265.06 1033.88 1271.94 1027 1271.94ZM1040.75 1265.06 1047.63 1265.06 1047.63 1271.94 1040.75 1271.94ZM1054.5 1265.06 1061.38 1265.06 1061.38 1271.94 1054.5 1271.94ZM1068.25 1265.06 1075.13 1265.06 1075.13 1271.94 1068.25 1271.94ZM1082 1265.06 1088.88 1265.06 1088.88 1271.94 1082 1271.94ZM1095.75 1265.06 1102.63 1265.06 1102.63 1271.94 1095.75 1271.94ZM1109.5 1265.06 1116.38 1265.06 1116.38 1271.94 1109.5 1271.94ZM1123.25 1265.06 1130.13 1265.06 1130.13 1271.94 1123.25 1271.94ZM1137 1265.06 1143.88 1265.06 1143.88 1271.94 1137 1271.94ZM1150.75 1265.06 1155.44 1265.06 1155.44 1271.94 1150.75 1271.94ZM1150.85 1254.75 1178.35 1268.5 1150.85 1282.25Z"/><path d="M505.208 1277.14 511.935 1278.55 510.52 1285.28 503.793 1283.86ZM518.663 1279.97 525.391 1281.38 523.976 1288.11 517.248 1286.69ZM532.119 1282.8 538.847 1284.21 537.432 1290.94 530.704 1289.52ZM545.574 1285.63 552.302 1287.04 550.887 1293.77 544.159 1292.35ZM559.03 1288.46 565.758 1289.87 564.343 1296.6 557.615 1295.18ZM572.486 1291.29 579.213 1292.7 577.798 1299.43 571.071 1298.01ZM585.941 1294.12 592.669 1295.53 591.254 1302.26 584.526 1300.84ZM599.397 1296.95 606.125 1298.36 604.71 1305.09 597.982 1303.67ZM612.852 1299.78 619.58 1301.19 618.165 1307.92 611.437 1306.5ZM626.308 1302.61 633.036 1304.02 631.621 1310.75 624.893 1309.34ZM639.764 1305.44 646.491 1306.85 645.076 1313.58 638.348 1312.17ZM653.219 1308.27 659.947 1309.68 658.532 1316.41 651.804 1315ZM666.675 1311.1 673.402 1312.51 671.987 1319.24 665.26 1317.83ZM680.13 1313.93 686.858 1315.34 685.443 1322.07 678.715 1320.66ZM693.586 1316.76 700.314 1318.17 698.899 1324.9 692.171 1323.49ZM707.041 1319.59 713.769 1321 712.354 1327.73 705.626 1326.32ZM720.497 1322.42 727.225 1323.83 725.81 1330.56 719.082 1329.15ZM733.953 1325.25 740.68 1326.66 739.265 1333.39 732.538 1331.98ZM747.408 1328.08 754.136 1329.49 752.721 1336.22 745.993 1334.81ZM760.864 1330.91 767.592 1332.32 766.177 1339.05 759.449 1337.64ZM774.319 1333.74 781.047 1335.15 779.632 1341.88 772.904 1340.47ZM787.775 1336.57 794.503 1337.98 793.088 1344.71 786.36 1343.3ZM801.231 1339.4 807.958 1340.81 806.543 1347.54 799.816 1346.13ZM814.686 1342.23 821.414 1343.64 819.999 1350.37 813.271 1348.96ZM828.142 1345.06 834.87 1346.47 833.455 1353.2 826.727 1351.79ZM841.597 1347.89 848.325 1349.3 846.91 1356.03 840.182 1354.62ZM855.053 1350.72 861.781 1352.13 860.366 1358.86 853.638 1357.45ZM868.509 1353.55 875.236 1354.96 873.821 1361.69 867.094 1360.28ZM881.964 1356.38 888.692 1357.79 887.277 1364.52 880.549 1363.11ZM895.42 1359.21 902.148 1360.62 900.733 1367.35 894.005 1365.94ZM908.875 1362.04 915.603 1363.46 914.188 1370.18 907.46 1368.77ZM922.331 1364.87 929.059 1366.29 927.644 1373.01 920.916 1371.6ZM935.787 1367.7 942.515 1369.12 941.099 1375.84 934.372 1374.43ZM949.242 1370.53 955.97 1371.95 954.555 1378.67 947.827 1377.26ZM962.698 1373.36 969.426 1374.78 968.011 1381.5 961.283 1380.09ZM976.154 1376.19 982.881 1377.61 981.466 1384.33 974.738 1382.92ZM989.609 1379.02 996.337 1380.44 994.922 1387.16 988.194 1385.75ZM1003.06 1381.85 1009.79 1383.27 1008.38 1389.99 1001.65 1388.58ZM1016.52 1384.68 1023.25 1386.1 1021.83 1392.82 1015.11 1391.41ZM1029.98 1387.51 1036.7 1388.93 1035.29 1395.65 1028.56 1394.24ZM1043.43 1390.34 1050.16 1391.76 1048.74 1398.48 1042.02 1397.07ZM1056.89 1393.17 1063.61 1394.59 1062.2 1401.31 1055.47 1399.9ZM1070.34 1396 1077.07 1397.42 1075.66 1404.14 1068.93 1402.73ZM1083.8 1398.83 1090.53 1400.25 1089.11 1406.97 1082.38 1405.56ZM1097.25 1401.66 1103.98 1403.08 1102.57 1409.8 1095.84 1408.39ZM1110.71 1404.49 1117.44 1405.91 1116.02 1412.63 1109.29 1411.22ZM1124.16 1407.32 1130.89 1408.74 1129.48 1415.46 1122.75 1414.05ZM1137.62 1410.15 1144.35 1411.57 1142.93 1418.3 1136.21 1416.88ZM1151.08 1412.98 1156.64 1414.15 1155.22 1420.88 1149.66 1419.71ZM1154.27 1403.12 1178.35 1422.23 1148.61 1430.03Z"/><text font-family="Noto Sans JP Black,Noto Sans JP Black_MSFontService,sans-serif" font-weight="900" font-size="83" transform="matrix(1 0 0 1 105.832 1296)">読み込み</text><text font-family="Noto Sans JP Black,Noto Sans JP Black_MSFontService,sans-serif" font-weight="900" font-size="83" transform="matrix(1 0 0 1 435.832 1296)"> </text><text fill="#196B24" font-family="Noto Sans JP Black,Noto Sans JP Black_MSFontService,sans-serif" font-weight="900" font-size="55" transform="matrix(1 0 0 1 1848.33 1130)">OK!</text><text fill="#196B24" font-family="Noto Sans JP Black,Noto Sans JP Black_MSFontService,sans-serif" font-weight="900" font-size="55" transform="matrix(1 0 0 1 1952.03 1130)"> </text><text fill="#196B24" font-family="Noto Sans JP Black,Noto Sans JP Black_MSFontService,sans-serif" font-weight="900" font-size="55" transform="matrix(1 0 0 1 1848.33 1287)">OK!</text><text fill="#196B24" font-family="Noto Sans JP Black,Noto Sans JP Black_MSFontService,sans-serif" font-weight="900" font-size="55" transform="matrix(1 0 0 1 1952.03 1287)"> </text><text fill="#FF0000" font-family="Noto Sans JP Black,Noto Sans JP Black_MSFontService,sans-serif" font-weight="900" font-size="55" transform="matrix(1 0 0 1 1848.33 1436)">Error</text><text fill="#FF0000" font-family="Noto Sans JP Black,Noto Sans JP Black_MSFontService,sans-serif" font-weight="900" font-size="55" transform="matrix(1 0 0 1 1993.85 1436)"> </text></g></svg>